# xmcd
#
# Track frame offsets: 
#        150
#        23312
#        41385
#        57383
#        74147
#        95406
#        116298
#        132534
#        146866
#        159087
#        184940
#        199968
#
# Disc length: 2979 seconds
#
# Revision: 0
# Processed by: cddbd v1.5.1PL0 Copyright (c) Steve Scherf et al.
# Submitted via: ExactAudioCopy v0.95a5
#
DISCID=aa0ba10c
DTITLE=Worlds Greatest Fishing Band - Papa Was A Fishin' Man Disk 4
DYEAR=2003
DGENRE=Country
TTITLE0=Tellin' Lies And Tyin' Flies
TTITLE1=Stay With The River
TTITLE2=Gather Them Up
TTITLE3=A Soldier's Wish
TTITLE4=Autumn Bloom
TTITLE5=City Mind Country Heart
TTITLE6=Keep Him Company
TTITLE7=Under An Old Man's Gaze
TTITLE8=Mayfly Magic
TTITLE9=Resting Place
TTITLE10=Matching The Hatch
TTITLE11=Keeper's Moon
EXTD=
EXTT0=
EXTT1=
EXTT2=
EXTT3=
EXTT4=
EXTT5=
EXTT6=
EXTT7=
EXTT8=
EXTT9=
EXTT10=
EXTT11=
PLAYORDER=
